<!-- cog.svg -->
<svg viewBox="0 0 24 24" width="20" height="20" fill="none" stroke="#7B89B0" stroke-width="1.75" stroke-linecap="round" stroke-linejoin="round">
  <path d="M10.3 4.3l.8.7c.8.1 1.6.3 2.3.7l1.1-.3 0 0 .4 1.2c.3.3.6.6.9 1l1.2.1-.1 1.2c.2.8.2 1.5 0 2.2l.1 1.2-1.2.1c-.3.4-.6.7-1 .9l-.4 1.2-1.1-.3c-.7.3-1.5.6-2.3.7l-.8.7-.8-.7c-.8-.1-1.6-.3-2.3-.7l-1.1.3-.4-1.2a6 6 0 01-.9-1l-1.2-.1.1-1.2a6.6 6.6 0 010-2.2L4 8.7l1.2-.1c.3-.4.6-.7.9-1l.4-1.2 1.1.3c.7-.3 1.5-.5 2.3-.7l.8-.7z"/>
  <circle cx="12" cy="12" r="3"/>
</svg>
